PathFileType	4	(X/Y/Z)	C:/Users/opensim2020/Desktop/walking_exp_matlab/subject02_walking17_run.trc																																																																																																																																																							
DataRate	CameraRate	NumFrames	NumMarkers	Units	OrigDataRate	OrigDataStartFrame	OrigNumFrames																																																																																																																																																			
100	100	7	51	mm	100	301	112																																																																																																																																																			
Frame#	Time	LSHO			RELB			LANK			LTOE			LUPA			RUPA			RWRB			LKNE			RSHO			RFIN			RFRM			RASI			LTHI			LWRB			RTHI			LASI			LFHD			RKNE			LELB			LTIB			RWRA			STRN			RTIB			RFHD			RANK			RBHD			RTOE			RHEE			C7			LHEE			LFRM			CLAV			LWRA			LBHD			RBAK			LFIN			T10			LPSI			RPSI			*39			*40			*41			*42			*43			*44			*45			*46			*47			*48			*49			*50		
		X1	Y1	Z1	X2	Y2	Z2	X3	Y3	Z3	X4	Y4	Z4	X5	Y5	Z5	X6	Y6	Z6	X7	Y7	Z7	X8	Y8	Z8	X9	Y9	Z9	X10	Y10	Z10	X11	Y11	Z11	X12	Y12	Z12	X13	Y13	Z13	X14	Y14	Z14	X15	Y15	Z15	X16	Y16	Z16	X17	Y17	Z17	X18	Y18	Z18	X19	Y19	Z19	X20	Y20	Z20	X21	Y21	Z21	X22	Y22	Z22	X23	Y23	Z23	X24	Y24	Z24	X25	Y25	Z25	X26	Y26	Z26	X27	Y27	Z27	X28	Y28	Z28	X29	Y29	Z29	X30	Y30	Z30	X31	Y31	Z31	X32	Y32	Z32	X33	Y33	Z33	X34	Y34	Z34	X35	Y35	Z35	X36	Y36	Z36	X37	Y37	Z37	X38	Y38	Z38	X39	Y39	Z39	X40	Y40	Z40	X41	Y41	Z41	X42	Y42	Z42	X43	Y43	Z43	X44	Y44	Z44	X45	Y45	Z45	X46	Y46	Z46	X47	Y47	Z47	X48	Y48	Z48	X49	Y49	Z49	X50	Y50	Z50	X51	Y51	Z51
																																																																																																																																																										
71	0.7	727.94727	1501.68018	-131.53384	784.1676	1223.85522	393.06973	1057.98889	118.58384	-54.39304	1216.10327	130.54607	-41.09684	648.01642	1423.07092	-292.4278	744.95306	1352.84058	331.48526	950.34625	1263.34753	209.52364	921.85272	513.9411	-93.44533	758.36688	1496.66687	198.39546	962.36438	1320.04871	167.83702	871.81677	1240.35071	304.58682	789.36816	982.23737	170.74236	855.08405	709.74054	-136.73146	759.52075	1120.37927	-322.0788	576.56561	719.58588	252.52046	808.16486	1006.58887	-75.31784	823.93182	1735.71008	-45.2636	494.45908	522.30206	243.56464	611.4491	1329.06128	-397.97925	955.12567	320.82678	-90.70976	905.52167	1292.42224	191.0141	834.29126	1276.60486	27.48962	337.6301	415.20792	241.01913	820.15778	1725.47021	98.69345	196.88777	283.19189	209.7229	690.42279	1628.90808	88.67297	224.33693	118.47207	242.77641	157.96391	268.37787	143.39897	671.28711	1524.16882	32.73429	1031.44922	86.25968	-1.98811	684.87976	1211.82446	-372.91226	804.53552	1450.71167	13.47777	772.61957	1157.3064	-278.99939	705.87244	1642.29065	-53.94938	599.75128	1371.69421	113.13499	810.18768	1090.52356	-286.74881	584.23761	1265.27966	51.2962	599.63556	1049.87048	-17.39925	589.08722	1056.29407	95.92592	2845.89771	1034.46863	-3356.98438	NaN	NaN	NaN	NaN	NaN	NaN	NaN	NaN	NaN	NaN	NaN	NaN	NaN	NaN	NaN	709.50818	1789.46985	36.3396	NaN	NaN	NaN	NaN	NaN	NaN	NaN	NaN	NaN	NaN	NaN	NaN	NaN	NaN	NaN
72	0.71	765.02283	1498.50635	-135.36757	820.08704	1222.67969	391.55844	1109.14758	120.53783	-58.58067	1268.22583	133.6277	-49.46457	682.19183	1413.28467	-292.56186	781.20337	1352.34058	329.85049	987.12238	1256.52258	206.94014	962.05939	510.46738	-96.80372	798.45636	1496.42981	196.01651	1000.90027	1312.50354	164.99518	908.09308	1236.10425	302.68207	833.08942	983.39197	170.58588	894.52423	703.01074	-142.82504	806.90576	1120.27075	-312.56989	618.90143	723.74084	250.95761	851.93951	1007.98364	-73.28598	864.98364	1734.5564	-48.27442	535.12506	526.62036	244.48831	645.70123	1315.80969	-394.28583	1003.09949	320.93591	-94.95479	943.12201	1286.69995	188.39603	874.7666	1277.13	24.17445	374.28384	425.2287	239.87373	860.69452	1724.19604	95.38827	229.56081	297.51953	206.81902	730.42059	1628.62695	84.98123	253.17622	134.94817	247.91356	190.80399	280.52658	139.81329	709.79926	1522.24573	29.49639	1084.60303	88.26225	-5.11398	726.45599	1204.67334	-365.97665	843.6048	1449.94861	9.45617	818.30426	1159.41675	-271.30292	746.18463	1642.03284	-57.48587	639.90247	1369.37854	111.77067	859.24219	1094.19067	-276.15469	625.22906	1264.53198	50.01011	642.59607	1051.15198	-19.97497	632.13245	1057.81555	93.28854	2845.13623	1034.70251	-3360.19507	NaN	NaN	NaN	NaN	NaN	NaN	NaN	NaN	NaN	NaN	NaN	NaN	NaN	NaN	NaN	750.81787	1789.22192	33.31191	NaN	NaN	NaN	NaN	NaN	NaN	NaN	NaN	NaN	NaN	NaN	NaN	NaN	NaN	NaN
73	0.72	802.10382	1494.52344	-139.21329	854.91473	1220.44531	389.6369	1152.03906	119.61332	-61.82693	1311.87109	130.51205	-54.42677	717.59967	1401.58521	-292.87848	816.94696	1350.59399	328.07657	1023.74811	1246.78845	205.04028	1004.52185	508.28174	-99.67809	837.57556	1495.20142	194.25749	1039.84216	1302.15466	162.60776	943.86816	1230.37915	301.11526	876.836	983.69305	170.63268	932.89331	695.83984	-148.58043	855.31348	1119.68958	-302.78915	662.86261	725.48663	249.23015	894.61755	1007.27417	-71.453	905.91754	1732.61951	-51.34226	578.76617	528.87939	245.45375	681.74048	1300.73853	-390.29105	1047.25452	321.10461	-97.72539	980.91522	1278.44592	185.75952	915.3371	1276.62878	20.62323	413.78403	434.02908	238.11424	901.14435	1722.1239	92.53958	265.20618	311.07477	203.35005	770.1051	1627.57593	81.22926	284.61353	150.6947	250.96156	226.02214	292.54681	136.04248	748.4425	1519.73694	26.88272	1128.23804	88.14053	-7.91901	769.14258	1196.65234	-358.72775	882.61694	1448.11145	5.85519	865.31152	1161.1842	-263.75873	786.58612	1640.86963	-61.03804	679.81683	1365.85132	110.11118	909.75616	1098.09985	-265.73904	666.11285	1262.88489	48.08364	684.97559	1051.44641	-22.93154	674.6402	1058.5166	90.58287	2845.17603	1034.36584	-3360.46362	NaN	NaN	NaN	NaN	NaN	NaN	NaN	NaN	NaN	NaN	NaN	NaN	NaN	NaN	NaN	791.85229	1788.03796	29.94577	NaN	NaN	NaN	NaN	NaN	NaN	NaN	NaN	NaN	NaN	NaN	NaN	NaN	NaN	NaN
74	0.73	839.27686	1489.88049	-143.0817	888.75159	1217.52661	387.58673	1187.22766	115.59283	-63.86941	1347.70862	121.1542	-56.80468	754.28101	1388.3064	-293.19724	852.17444	1347.86707	326.21393	1060.54797	1234.36743	204.05019	1048.52795	506.74402	-101.79467	876.39337	1493.26978	193.2832	1079.34546	1288.02246	160.81375	978.79071	1223.03711	299.47659	920.2915	983.38147	170.33224	971.30109	688.30127	-153.61522	904.9101	1119.01611	-293.36838	708.98242	724.94598	248.19115	937.48804	1005.07947	-70.63857	946.67896	1729.93591	-54.32434	625.95038	527.78998	246.32544	719.7226	1284.18994	-385.89261	1086.52917	319.45441	-99.46066	1019.40814	1267.92725	184.23251	955.68475	1274.6239	17.37382	457.15479	440.40253	236.58537	941.35187	1719.46826	89.59141	304.44287	323.32263	199.90746	809.74426	1625.30469	77.63947	318.15753	165.06825	252.25294	264.24887	305.28543	132.08524	787.25012	1516.40771	24.34524	1163.30286	85.19696	-9.50004	813.25427	1187.63367	-351.15057	921.71149	1445.43555	2.43445	913.16681	1162.8103	-256.33682	826.97144	1638.88647	-64.41561	719.76459	1361.51013	107.79719	960.66278	1101.59692	-255.49831	706.91425	1259.90381	45.56221	727.10095	1050.59595	-26.13764	716.77563	1058.10608	87.90251	2846.17065	1034.50549	-3357.08447	NaN	NaN	NaN	NaN	NaN	NaN	NaN	NaN	NaN	NaN	NaN	NaN	NaN	NaN	NaN	832.65265	1786.0271	26.4083	NaN	NaN	NaN	NaN	NaN	NaN	NaN	NaN	NaN	NaN	NaN	NaN	NaN	NaN	NaN
75	0.74	876.40399	1484.59705	-147.09897	921.56403	1214.09961	385.17535	1215.70947	108.80687	-64.2577	1376.35767	106.55196	-57.63064	791.84357	1373.8269	-293.36499	886.92468	1344.46997	324.30789	1097.17407	1219.7002	204.14482	1093.22473	505.05066	-103.45954	914.52686	1490.34131	192.35854	1119.36829	1271.09326	160.14877	1012.99127	1214.26086	298.21082	963.29749	982.45868	169.62157	1010.15192	680.09369	-157.16864	955.30444	1118.2937	-283.88358	757.9248	721.43817	248.38844	980.51086	1001.43469	-70.51276	987.29071	1726.62024	-57.16743	676.68671	523.48578	248.04628	759.30457	1266.2489	-380.70959	1122.08032	315.74152	-100.3233	1058.33923	1255.19824	183.30933	995.79517	1271.67175	14.34204	504.36203	443.72235	236.13904	981.3631	1716.08069	86.71527	347.09595	333.97	196.21416	849.35901	1622.40576	74.00496	353.93152	177.85768	251.84666	306.32455	317.21429	127.66521	826.21844	1512.38989	21.88353	1191.21936	80.2402	-9.19168	858.5423	1177.48389	-342.83786	960.72937	1442.1311	-0.85413	961.16125	1163.68188	-249.18346	867.15753	1635.94971	-67.88999	759.49213	1357.07239	104.92451	1012.44189	1105.38379	-245.75717	747.52246	1255.62354	42.62632	769.34991	1048.09351	-29.27658	758.74921	1056.05078	85.41737	2846.05884	1034.4552	-3356.98096	NaN	NaN	NaN	NaN	NaN	NaN	NaN	NaN	NaN	NaN	NaN	NaN	NaN	NaN	NaN	873.00549	1783.19434	22.93975	NaN	NaN	NaN	NaN	NaN	NaN	NaN	NaN	NaN	NaN	NaN	NaN	NaN	NaN	NaN
76	0.75	913.44519	1478.41528	-151.15971	953.5069	1210.4165	382.53125	1238.83948	99.80585	-63.18216	1399.17615	88.41025	-56.37863	830.43604	1358.51343	-293.42078	920.98407	1340.32642	321.81213	1133.2323	1203.06738	205.56683	1136.90894	501.63977	-105.26194	952.45819	1486.50818	190.99156	1159.44543	1251.96472	161.13629	1046.56433	1204.37817	297.48691	1006.02771	980.69208	168.64301	1050.33325	671.03998	-158.25961	1006.43872	1117.12402	-274.30981	808.50696	714.5423	249.55861	1022.80829	995.97046	-71.18563	1027.61548	1722.46777	-59.81753	730.08844	515.90594	250.24158	801.43115	1247.69128	-375.53189	1154.39221	310.54123	-100.36771	1096.68689	1240.16394	183.18887	1036.23218	1267.98193	11.20828	554.80182	443.70123	236.37178	1021.20844	1711.88721	84.29748	392.89587	343.20239	192.19009	889.21228	1618.3822	71.05083	393.14987	189.0845	249.88837	351.53891	328.09015	122.6468	865.39972	1507.82288	19.22136	1213.58203	73.46674	-7.8501	905.61407	1166.93323	-334.70779	999.73065	1438.15393	-3.94833	1009.77423	1164.42944	-241.55392	907.33173	1632.11145	-71.25829	799.16699	1352.03223	101.12073	1064.44116	1109.52319	-236.27359	787.91034	1250.12012	39.44827	811.59741	1043.677	-31.98867	800.6416	1052.02185	83.44604	2845.23657	1034.19543	-3360.46021	NaN	NaN	NaN	NaN	NaN	NaN	NaN	NaN	NaN	NaN	NaN	NaN	NaN	NaN	NaN	913.26019	1779.32678	19.70825	NaN	NaN	NaN	NaN	NaN	NaN	NaN	NaN	NaN	NaN	NaN	NaN	NaN	NaN	NaN
77	0.76	950.46698	1471.29065	-155.32498	984.47662	1206.57324	379.845	1259.06494	89.37987	-61.24664	1418.34302	67.95349	-52.81933	869.95782	1342.4458	-293.18793	955.46997	1336.56384	318.96771	1168.177	1184.25049	208.09796	1177.45007	496.13803	-107.48995	990.66559	1481.87048	189.14748	1198.87317	1230.10242	163.39305	1079.58704	1193.36743	297.59851	1048.53699	977.61749	167.52974	1091.17236	666.00531	-154.52377	1057.53418	1115.92834	-263.86932	860.10254	704.68567	251.88736	1064.91382	989.20941	-72.90876	1067.68018	1717.35059	-62.28811	785.69897	506.02118	252.88998	845.59509	1228.45947	-369.9523	1183.30481	303.99576	-99.98237	1134.76013	1223.22351	184.02797	1076.42529	1263.02356	8.67289	607.57074	441.37082	237.07639	1060.69666	1706.58801	81.65541	441.4379	351.19067	187.9465	928.51776	1613.58691	68.0351	436.8172	198.94814	246.84967	399.51242	337.60553	117.68512	904.40375	1502.64575	16.29228	1232.8634	65.39362	-5.59221	954.14594	1156.31445	-326.04172	1038.65662	1433.30872	-6.83981	1058.18359	1165.26599	-234.03798	947.28857	1627.12939	-74.26732	838.58209	1346.57947	97.97561	1116.56152	1114.48157	-226.66029	828.12122	1243.5896	36.20692	853.93457	1037.22327	-33.89648	842.68115	1046.0249	82.18285	2845.94092	1034.51099	-3357.29028	NaN	NaN	NaN	NaN	NaN	NaN	NaN	NaN	NaN	NaN	NaN	NaN	NaN	NaN	NaN	953.19836	1774.427	16.70301	NaN	NaN	NaN	NaN	NaN	NaN	NaN	NaN	NaN	NaN	NaN	NaN	NaN	NaN	NaN
